<mxfile host="Electron" modified="2024-03-11T14:38:11.044Z" agent="Mozilla/5.0 (Windows NT 10.0; Win64; x64) AppleWebKit/537.36 (KHTML, like Gecko) draw.io/23.1.5 Chrome/120.0.6099.109 Electron/28.1.0 Safari/537.36" etag="znP0qXqqgVqpT1OP4wYc" version="23.1.5" type="device">
  <diagram name="Page-1" id="KgmVEBSmYGqNWToEeJ3M">
    <mxGraphModel dx="1434" dy="844" grid="1" gridSize="10" guides="1" tooltips="1" connect="1" arrows="1" fold="1" page="1" pageScale="1" pageWidth="1100" pageHeight="850" math="0" shadow="0">
      <root>
        <mxCell id="0" />
        <mxCell id="1" parent="0" />
        <mxCell id="JgCY5jLNPYkZAKVotKgf-22" value="&lt;span style=&quot;color: rgb(0, 0, 0); font-family: Helvetica; font-size: 12px; font-style: normal; font-variant-ligatures: normal; font-variant-caps: normal; font-weight: 700; letter-spacing: normal; orphans: 2; text-align: left; text-indent: 0px; text-transform: none; widows: 2; word-spacing: 0px; -webkit-text-stroke-width: 0px; background-color: rgb(255, 255, 0); text-decoration-thickness: initial; text-decoration-style: initial; text-decoration-color: initial; float: none; display: inline !important;&quot;&gt;base_shared_gce_instance&lt;/span&gt;&lt;br style=&quot;border-color: var(--border-color); color: rgb(0, 0, 0); font-family: Helvetica; font-size: 12px; font-style: normal; font-variant-ligatures: normal; font-variant-caps: normal; font-weight: 700; letter-spacing: normal; orphans: 2; text-align: left; text-indent: 0px; text-transform: none; widows: 2; word-spacing: 0px; -webkit-text-stroke-width: 0px; text-decoration-thickness: initial; text-decoration-style: initial; text-decoration-color: initial;&quot;&gt;&lt;span style=&quot;color: rgb(0, 0, 0); font-family: Helvetica; font-size: 12px; font-style: normal; font-variant-ligatures: normal; font-variant-caps: normal; font-weight: 700; letter-spacing: normal; orphans: 2; text-align: left; text-indent: 0px; text-transform: none; widows: 2; word-spacing: 0px; -webkit-text-stroke-width: 0px; background-color: rgb(255, 255, 0); text-decoration-thickness: initial; text-decoration-style: initial; text-decoration-color: initial; float: none; display: inline !important;&quot;&gt;peering_gce_instance&lt;/span&gt;" style="text;whiteSpace=wrap;html=1;" vertex="1" parent="1">
          <mxGeometry x="211" y="519" width="190" height="50" as="geometry" />
        </mxCell>
        <mxCell id="JgCY5jLNPYkZAKVotKgf-21" value="&lt;span style=&quot;color: rgb(0, 0, 0); font-family: Helvetica; font-size: 12px; font-style: normal; font-variant-ligatures: normal; font-variant-caps: normal; font-weight: 700; letter-spacing: normal; orphans: 2; text-align: left; text-indent: 0px; text-transform: none; widows: 2; word-spacing: 0px; -webkit-text-stroke-width: 0px; background-color: rgb(255, 255, 0); text-decoration-thickness: initial; text-decoration-style: initial; text-decoration-color: initial; float: none; display: inline !important;&quot;&gt;base_shared_gce_instance&lt;/span&gt;&lt;br style=&quot;border-color: var(--border-color); color: rgb(0, 0, 0); font-family: Helvetica; font-size: 12px; font-style: normal; font-variant-ligatures: normal; font-variant-caps: normal; font-weight: 700; letter-spacing: normal; orphans: 2; text-align: left; text-indent: 0px; text-transform: none; widows: 2; word-spacing: 0px; -webkit-text-stroke-width: 0px; text-decoration-thickness: initial; text-decoration-style: initial; text-decoration-color: initial;&quot;&gt;&lt;span style=&quot;color: rgb(0, 0, 0); font-family: Helvetica; font-size: 12px; font-style: normal; font-variant-ligatures: normal; font-variant-caps: normal; font-weight: 700; letter-spacing: normal; orphans: 2; text-align: left; text-indent: 0px; text-transform: none; widows: 2; word-spacing: 0px; -webkit-text-stroke-width: 0px; background-color: rgb(255, 255, 0); text-decoration-thickness: initial; text-decoration-style: initial; text-decoration-color: initial; float: none; display: inline !important;&quot;&gt;peering_gce_instance&lt;/span&gt;" style="text;whiteSpace=wrap;html=1;" vertex="1" parent="1">
          <mxGeometry x="210" y="400" width="190" height="50" as="geometry" />
        </mxCell>
        <mxCell id="JgCY5jLNPYkZAKVotKgf-1" value="5-app-infra" style="shape=folder;fontStyle=1;spacingTop=10;tabWidth=40;tabHeight=14;tabPosition=left;html=1;whiteSpace=wrap;" vertex="1" parent="1">
          <mxGeometry x="120" y="80" width="70" height="50" as="geometry" />
        </mxCell>
        <mxCell id="JgCY5jLNPYkZAKVotKgf-2" value="BU-1" style="shape=folder;fontStyle=1;spacingTop=10;tabWidth=40;tabHeight=14;tabPosition=left;html=1;whiteSpace=wrap;" vertex="1" parent="1">
          <mxGeometry x="120" y="186" width="70" height="50" as="geometry" />
        </mxCell>
        <mxCell id="JgCY5jLNPYkZAKVotKgf-3" value="Development" style="shape=folder;fontStyle=1;spacingTop=10;tabWidth=40;tabHeight=14;tabPosition=left;html=1;whiteSpace=wrap;" vertex="1" parent="1">
          <mxGeometry x="120" y="300" width="80" height="50" as="geometry" />
        </mxCell>
        <mxCell id="JgCY5jLNPYkZAKVotKgf-4" value="Non-Prod" style="shape=folder;fontStyle=1;spacingTop=10;tabWidth=40;tabHeight=14;tabPosition=left;html=1;whiteSpace=wrap;" vertex="1" parent="1">
          <mxGeometry x="120" y="411" width="80" height="50" as="geometry" />
        </mxCell>
        <mxCell id="JgCY5jLNPYkZAKVotKgf-5" value="Production" style="shape=folder;fontStyle=1;spacingTop=10;tabWidth=40;tabHeight=14;tabPosition=left;html=1;whiteSpace=wrap;" vertex="1" parent="1">
          <mxGeometry x="120" y="524" width="80" height="50" as="geometry" />
        </mxCell>
        <mxCell id="JgCY5jLNPYkZAKVotKgf-6" value="modules" style="shape=folder;fontStyle=1;spacingTop=10;tabWidth=40;tabHeight=14;tabPosition=left;html=1;whiteSpace=wrap;" vertex="1" parent="1">
          <mxGeometry x="400" y="190" width="70" height="50" as="geometry" />
        </mxCell>
        <mxCell id="JgCY5jLNPYkZAKVotKgf-7" value="&lt;div style=&quot;text-align: center;&quot;&gt;&lt;span style=&quot;background-color: initial;&quot;&gt;env_base&amp;nbsp;&lt;/span&gt;&lt;/div&gt;" style="shape=folder;fontStyle=1;spacingTop=10;tabWidth=40;tabHeight=14;tabPosition=left;html=1;whiteSpace=wrap;align=left;" vertex="1" parent="1">
          <mxGeometry x="390" y="282" width="110" height="70" as="geometry" />
        </mxCell>
        <mxCell id="JgCY5jLNPYkZAKVotKgf-16" value="1" style="endArrow=open;html=1;endSize=12;startArrow=diamondThin;startSize=14;startFill=1;edgeStyle=orthogonalEdgeStyle;align=left;verticalAlign=bottom;rounded=0;entryX=-0.027;entryY=0.6;entryDx=0;entryDy=0;entryPerimeter=0;" edge="1" parent="1" target="JgCY5jLNPYkZAKVotKgf-7">
          <mxGeometry x="-1" y="3" relative="1" as="geometry">
            <mxPoint x="200" y="324.5" as="sourcePoint" />
            <mxPoint x="360" y="324.5" as="targetPoint" />
          </mxGeometry>
        </mxCell>
        <mxCell id="JgCY5jLNPYkZAKVotKgf-18" value="1" style="endArrow=open;html=1;endSize=12;startArrow=diamondThin;startSize=14;startFill=1;edgeStyle=orthogonalEdgeStyle;align=left;verticalAlign=bottom;rounded=0;entryX=0.5;entryY=1;entryDx=0;entryDy=0;entryPerimeter=0;" edge="1" parent="1" target="JgCY5jLNPYkZAKVotKgf-7">
          <mxGeometry x="-1" y="3" relative="1" as="geometry">
            <mxPoint x="200" y="445.5" as="sourcePoint" />
            <mxPoint x="440" y="360" as="targetPoint" />
            <Array as="points">
              <mxPoint x="315" y="446" />
              <mxPoint x="315" y="447" />
              <mxPoint x="445" y="447" />
            </Array>
          </mxGeometry>
        </mxCell>
        <mxCell id="JgCY5jLNPYkZAKVotKgf-19" value="1" style="endArrow=open;html=1;endSize=12;startArrow=diamondThin;startSize=14;startFill=1;edgeStyle=orthogonalEdgeStyle;align=left;verticalAlign=bottom;rounded=0;exitX=0;exitY=1;exitDx=0;exitDy=0;entryX=0.664;entryY=1.014;entryDx=0;entryDy=0;entryPerimeter=0;" edge="1" parent="1" target="JgCY5jLNPYkZAKVotKgf-7">
          <mxGeometry x="-1" y="3" relative="1" as="geometry">
            <mxPoint x="200" y="560" as="sourcePoint" />
            <mxPoint x="470" y="380" as="targetPoint" />
            <Array as="points">
              <mxPoint x="463" y="560" />
            </Array>
          </mxGeometry>
        </mxCell>
        <mxCell id="JgCY5jLNPYkZAKVotKgf-20" value="&lt;span style=&quot;color: rgb(0, 0, 0); font-family: Helvetica; font-size: 12px; font-style: normal; font-variant-ligatures: normal; font-variant-caps: normal; font-weight: 700; letter-spacing: normal; orphans: 2; text-align: left; text-indent: 0px; text-transform: none; widows: 2; word-spacing: 0px; -webkit-text-stroke-width: 0px; background-color: rgb(255, 255, 0); text-decoration-thickness: initial; text-decoration-style: initial; text-decoration-color: initial; float: none; display: inline !important;&quot;&gt;base_shared_gce_instance&lt;/span&gt;&lt;br style=&quot;border-color: var(--border-color); color: rgb(0, 0, 0); font-family: Helvetica; font-size: 12px; font-style: normal; font-variant-ligatures: normal; font-variant-caps: normal; font-weight: 700; letter-spacing: normal; orphans: 2; text-align: left; text-indent: 0px; text-transform: none; widows: 2; word-spacing: 0px; -webkit-text-stroke-width: 0px; text-decoration-thickness: initial; text-decoration-style: initial; text-decoration-color: initial;&quot;&gt;&lt;span style=&quot;color: rgb(0, 0, 0); font-family: Helvetica; font-size: 12px; font-style: normal; font-variant-ligatures: normal; font-variant-caps: normal; font-weight: 700; letter-spacing: normal; orphans: 2; text-align: left; text-indent: 0px; text-transform: none; widows: 2; word-spacing: 0px; -webkit-text-stroke-width: 0px; background-color: rgb(255, 255, 0); text-decoration-thickness: initial; text-decoration-style: initial; text-decoration-color: initial; float: none; display: inline !important;&quot;&gt;peering_gce_instance&lt;/span&gt;" style="text;whiteSpace=wrap;html=1;" vertex="1" parent="1">
          <mxGeometry x="210" y="282" width="190" height="50" as="geometry" />
        </mxCell>
        <mxCell id="JgCY5jLNPYkZAKVotKgf-23" value="&lt;p style=&quot;margin: 6px 0px 0px;&quot;&gt;service_account&lt;/p&gt;&lt;p style=&quot;margin: 6px 0px 0px;&quot;&gt;&lt;span style=&quot;background-color: rgb(255, 255, 0);&quot;&gt;compute_engine_service_account&lt;/span&gt;&lt;/p&gt;&lt;p style=&quot;margin: 6px 0px 0px;&quot;&gt;&lt;br&gt;&lt;/p&gt;" style="align=left;overflow=fill;html=1;dropTarget=0;whiteSpace=wrap;" vertex="1" parent="1">
          <mxGeometry x="620" y="209" width="200" height="42" as="geometry" />
        </mxCell>
        <mxCell id="JgCY5jLNPYkZAKVotKgf-24" value="" style="shape=component;jettyWidth=8;jettyHeight=4;" vertex="1" parent="JgCY5jLNPYkZAKVotKgf-23">
          <mxGeometry x="1" width="20" height="20" relative="1" as="geometry">
            <mxPoint x="-24" y="4" as="offset" />
          </mxGeometry>
        </mxCell>
        <object label="vm / modules /&amp;nbsp;instance_template&lt;br&gt;&lt;span style=&quot;background-color: rgb(255, 255, 0);&quot;&gt;instance_template&lt;/span&gt;" Description="&quot;Firewall rules for base hub and spoke shared vpc" Rules="Allow private google apis on TCP port 443&#xa;Allow all ingress/egress to the provided IP range" Name="firewall_rules" id="JgCY5jLNPYkZAKVotKgf-25">
          <mxCell style="shape=module;align=left;spacingLeft=20;align=center;verticalAlign=top;whiteSpace=wrap;html=1;fillColor=#FFCCE6;" vertex="1" parent="1">
            <mxGeometry x="620" y="305" width="160" height="54" as="geometry" />
          </mxCell>
        </object>
        <object label="vm / modules /&amp;nbsp;compute_instance&lt;br&gt;&lt;span style=&quot;background-color: rgb(255, 255, 0);&quot;&gt;compute_instance&lt;/span&gt;" Description="&quot;Firewall rules for base hub and spoke shared vpc" Rules="Allow private google apis on TCP port 443&#xa;Allow all ingress/egress to the provided IP range" Name="firewall_rules" id="JgCY5jLNPYkZAKVotKgf-26">
          <mxCell style="shape=module;align=left;spacingLeft=20;align=center;verticalAlign=top;whiteSpace=wrap;html=1;fillColor=#FFCCE6;" vertex="1" parent="1">
            <mxGeometry x="620" y="406" width="160" height="54" as="geometry" />
          </mxCell>
        </object>
        <mxCell id="JgCY5jLNPYkZAKVotKgf-27" value="Use" style="endArrow=open;endSize=12;dashed=1;html=1;rounded=0;entryX=0.5;entryY=1;entryDx=0;entryDy=0;exitX=0.5;exitY=0;exitDx=0;exitDy=0;" edge="1" parent="1" source="JgCY5jLNPYkZAKVotKgf-26" target="JgCY5jLNPYkZAKVotKgf-25">
          <mxGeometry width="160" relative="1" as="geometry">
            <mxPoint x="400" y="559" as="sourcePoint" />
            <mxPoint x="505" y="549" as="targetPoint" />
          </mxGeometry>
        </mxCell>
        <mxCell id="JgCY5jLNPYkZAKVotKgf-28" value="&lt;span style=&quot;color: rgb(0, 0, 0); font-family: Helvetica; font-size: 12px; font-style: normal; font-variant-ligatures: normal; font-variant-caps: normal; font-weight: 700; letter-spacing: normal; orphans: 2; text-align: center; text-indent: 0px; text-transform: none; widows: 2; word-spacing: 0px; -webkit-text-stroke-width: 0px; background-color: rgb(251, 251, 251); text-decoration-thickness: initial; text-decoration-style: initial; text-decoration-color: initial; float: none; display: inline !important;&quot;&gt;count = var.num_instances&lt;br&gt;(default:1)&lt;br&gt;&lt;/span&gt;" style="text;whiteSpace=wrap;html=1;" vertex="1" parent="1">
          <mxGeometry x="630" y="461" width="170" height="40" as="geometry" />
        </mxCell>
        <mxCell id="JgCY5jLNPYkZAKVotKgf-31" value="Use" style="endArrow=open;endSize=12;dashed=1;html=1;rounded=0;entryX=0.5;entryY=1;entryDx=0;entryDy=0;exitX=0.5;exitY=0;exitDx=0;exitDy=0;" edge="1" parent="1">
          <mxGeometry width="160" relative="1" as="geometry">
            <mxPoint x="699.5" y="300" as="sourcePoint" />
            <mxPoint x="699.5" y="253" as="targetPoint" />
          </mxGeometry>
        </mxCell>
        <mxCell id="JgCY5jLNPYkZAKVotKgf-32" value="" style="rounded=0;whiteSpace=wrap;html=1;fillColor=none;dashed=1;dashPattern=12 12;" vertex="1" parent="1">
          <mxGeometry x="600" y="289" width="200" height="221" as="geometry" />
        </mxCell>
        <mxCell id="JgCY5jLNPYkZAKVotKgf-34" value="1" style="endArrow=open;html=1;endSize=12;startArrow=diamondThin;startSize=14;startFill=1;edgeStyle=orthogonalEdgeStyle;align=left;verticalAlign=bottom;rounded=0;" edge="1" parent="1">
          <mxGeometry x="-1" y="3" relative="1" as="geometry">
            <mxPoint x="500" y="331.5" as="sourcePoint" />
            <mxPoint x="600" y="331.5" as="targetPoint" />
            <Array as="points">
              <mxPoint x="590.5" y="332" />
            </Array>
          </mxGeometry>
        </mxCell>
        <mxCell id="JgCY5jLNPYkZAKVotKgf-35" value="1" style="endArrow=open;html=1;endSize=12;startArrow=diamondThin;startSize=14;startFill=1;edgeStyle=orthogonalEdgeStyle;align=left;verticalAlign=bottom;rounded=0;" edge="1" parent="1">
          <mxGeometry x="-1" y="3" relative="1" as="geometry">
            <mxPoint x="444.5" y="240" as="sourcePoint" />
            <mxPoint x="444.5" y="300" as="targetPoint" />
          </mxGeometry>
        </mxCell>
        <mxCell id="JgCY5jLNPYkZAKVotKgf-36" value="" style="rounded=0;whiteSpace=wrap;html=1;fillColor=none;dashed=1;dashPattern=12 12;" vertex="1" parent="1">
          <mxGeometry x="90" y="290" width="150" height="300" as="geometry" />
        </mxCell>
        <mxCell id="JgCY5jLNPYkZAKVotKgf-37" value="1" style="endArrow=open;html=1;endSize=12;startArrow=diamondThin;startSize=14;startFill=1;edgeStyle=orthogonalEdgeStyle;align=left;verticalAlign=bottom;rounded=0;" edge="1" parent="1">
          <mxGeometry x="-1" y="3" relative="1" as="geometry">
            <mxPoint x="154.5" y="230" as="sourcePoint" />
            <mxPoint x="154.5" y="290" as="targetPoint" />
          </mxGeometry>
        </mxCell>
        <mxCell id="JgCY5jLNPYkZAKVotKgf-38" value="1" style="endArrow=open;html=1;endSize=12;startArrow=diamondThin;startSize=14;startFill=1;edgeStyle=orthogonalEdgeStyle;align=left;verticalAlign=bottom;rounded=0;" edge="1" parent="1">
          <mxGeometry x="-1" y="3" relative="1" as="geometry">
            <mxPoint x="140" y="130" as="sourcePoint" />
            <mxPoint x="140" y="190" as="targetPoint" />
          </mxGeometry>
        </mxCell>
        <mxCell id="JgCY5jLNPYkZAKVotKgf-39" value="1" style="endArrow=open;html=1;endSize=12;startArrow=diamondThin;startSize=14;startFill=1;edgeStyle=orthogonalEdgeStyle;align=left;verticalAlign=bottom;rounded=0;entryX=0;entryY=0;entryDx=20;entryDy=0;entryPerimeter=0;exitX=0;exitY=0;exitDx=70;exitDy=23;exitPerimeter=0;" edge="1" parent="1" source="JgCY5jLNPYkZAKVotKgf-1" target="JgCY5jLNPYkZAKVotKgf-6">
          <mxGeometry x="-1" y="3" relative="1" as="geometry">
            <mxPoint x="340" y="100" as="sourcePoint" />
            <mxPoint x="340" y="160" as="targetPoint" />
          </mxGeometry>
        </mxCell>
        <mxCell id="JgCY5jLNPYkZAKVotKgf-40" value="" style="endArrow=block;dashed=1;endFill=0;endSize=12;html=1;rounded=0;exitX=0.9;exitY=0.129;exitDx=0;exitDy=0;exitPerimeter=0;" edge="1" parent="1" source="JgCY5jLNPYkZAKVotKgf-7">
          <mxGeometry width="160" relative="1" as="geometry">
            <mxPoint x="460" y="229.5" as="sourcePoint" />
            <mxPoint x="620" y="229.5" as="targetPoint" />
            <Array as="points">
              <mxPoint x="490" y="230" />
            </Array>
          </mxGeometry>
        </mxCell>
      </root>
    </mxGraphModel>
  </diagram>
</mxfile>
